<svg width="70" height="71" viewBox="0 0 70 71" fill="none" xmlns="http://www.w3.org/2000/svg">
<g clip-path="url(#clip0_10390_81142)">
<g filter="url(#filter0_d_10390_81142)">
<path d="M25 3C25 1.34315 26.3431 0 28 0H37.7574C38.553 0 39.3161 0.316071 39.8787 0.87868L48.1213 9.12132C48.6839 9.68393 49 10.447 49 11.2426V31C49 32.6569 47.6569 34 46 34H28C26.3431 34 25 32.6569 25 31V3Z" fill="white"/>
</g>
<path fill-rule="evenodd" clip-rule="evenodd" d="M49 10V31C49 31.7956 48.6839 32.5587 48.1213 33.1213C47.5587 33.6839 46.7956 34 46 34H28C27.2044 34 26.4413 33.6839 25.8787 33.1213C25.3161 32.5587 25 31.7956 25 31V3C25 2.20435 25.3161 1.44129 25.8787 0.87868C26.4413 0.316071 27.2044 0 28 0H39L49 10ZM39 11C38.7348 11 38.4804 10.8946 38.2929 10.7071C38.1054 10.5196 38 10.2652 38 10V2H28C27.7348 2 27.4804 2.10536 27.2929 2.29289C27.1054 2.48043 27 2.73478 27 3V31C27 31.2652 27.1054 31.5196 27.2929 31.7071C27.4804 31.8946 27.7348 32 28 32H46C46.2652 32 46.5196 31.8946 46.7071 31.7071C46.8946 31.5196 47 31.2652 47 31V11H39ZM40 3.828L45.172 9H40V3.828Z" fill="#335EEA"/>
<g filter="url(#filter1_d_10390_81142)">
<path d="M23 6V33C23 33.7956 23.3161 34.5587 23.8787 35.1213C24.4413 35.6839 25.2044 36 26 36H45V38H26C24.6739 38 23.4021 37.4732 22.4645 36.5355C21.5268 35.5979 21 34.3261 21 33V6H23Z" fill="#335EEA"/>
</g>
<path d="M21.998 44.7207L19.6132 50.9785L17.2167 44.7207H15.8222L19.1269 53H20.0878L23.3808 44.7207H21.998ZM25.665 53H26.9248V44.7207H25.665V53ZM30.4922 53H35.9707V51.8105H31.752V49.4316H35.6309V48.2715H31.752V45.8809H35.9707V44.7207H30.4922V53ZM40.3995 53H41.6299L43.5459 47.1758L45.4561 53H46.6866L49.1358 44.7207H47.8291L45.9776 51.1602L44.0381 45.1895H43.0479L41.1084 51.1602L39.2627 44.7207H37.9502L40.3995 53ZM7.42125 67H9.75328C12.5189 67 14.0482 65.5059 14.0482 62.9219C14.0482 60.2324 12.5599 58.7207 9.765 58.7207H7.42125V67ZM8.68102 65.8398V59.8809H9.74742C11.8802 59.8809 12.7884 60.7891 12.7884 62.8691C12.7884 65.0137 11.5873 65.8398 9.63609 65.8398H8.68102ZM16.7367 67H22.2152V65.8105H17.9965V63.4316H21.8754V62.2715H17.9965V59.8809H22.2152V58.7207H16.7367V67ZM26.9252 67H28.185V59.8516H30.8745V58.7207H24.2299V59.8516H26.9252V67ZM31.436 67H32.813L33.4985 65.1367H36.8266L37.5005 67H38.8598L35.6372 58.7207H34.6704L31.436 67ZM33.8911 64.0527L35.1626 60.5547L36.4282 64.0527H33.8911ZM41.1558 67H42.4155V58.7207H41.1558V67ZM45.983 67H50.8638V65.8105H47.2427V58.7207H45.983V67ZM55.5094 67.0879C57.068 67.0879 58.3219 66.1445 58.3219 64.6328C58.3219 61.8906 54.232 62.4707 54.232 60.7715C54.232 60.1621 54.7477 59.7285 55.4273 59.7285C56.0543 59.7285 56.5641 60.0566 56.8863 60.666L57.9293 60.0215C57.3785 59.043 56.4879 58.6094 55.4684 58.6094C54.109 58.6094 52.9723 59.4297 52.9723 60.8359C52.9723 63.4961 57.0621 62.875 57.0621 64.7441C57.0621 65.4355 56.4996 65.9688 55.5328 65.9688C54.5777 65.9688 53.816 65.4648 53.6871 64.3926L52.4391 64.709C52.6969 66.2852 54.0621 67.0879 55.5094 67.0879Z" fill="#335EEA"/>
</g>
<defs>
<filter id="filter0_d_10390_81142" x="1" y="-16" width="72" height="82" filterUnits="userSpaceOnUse" color-interpolation-filters="sRGB">
<feFlood flood-opacity="0" result="BackgroundImageFix"/>
<feColorMatrix in="SourceAlpha" type="matrix" values="0 0 0 0 0 0 0 0 0 0 0 0 0 0 0 0 0 0 127 0" result="hardAlpha"/>
<feOffset dy="8"/>
<feGaussianBlur stdDeviation="12"/>
<feColorMatrix type="matrix" values="0 0 0 0 0.0846666 0 0 0 0 0.105686 0 0 0 0 0.174672 0 0 0 0.1 0"/>
<feBlend mode="normal" in2="BackgroundImageFix" result="effect1_dropShadow_10390_81142"/>
<feBlend mode="normal" in="SourceGraphic" in2="effect1_dropShadow_10390_81142" result="shape"/>
</filter>
<filter id="filter1_d_10390_81142" x="-3" y="-10" width="72" height="80" filterUnits="userSpaceOnUse" color-interpolation-filters="sRGB">
<feFlood flood-opacity="0" result="BackgroundImageFix"/>
<feColorMatrix in="SourceAlpha" type="matrix" values="0 0 0 0 0 0 0 0 0 0 0 0 0 0 0 0 0 0 127 0" result="hardAlpha"/>
<feOffset dy="8"/>
<feGaussianBlur stdDeviation="12"/>
<feColorMatrix type="matrix" values="0 0 0 0 0.0846666 0 0 0 0 0.105686 0 0 0 0 0.174672 0 0 0 0.1 0"/>
<feBlend mode="normal" in2="BackgroundImageFix" result="effect1_dropShadow_10390_81142"/>
<feBlend mode="normal" in="SourceGraphic" in2="effect1_dropShadow_10390_81142" result="shape"/>
</filter>
<clipPath id="clip0_10390_81142">
<rect width="70" height="71" fill="white"/>
</clipPath>
</defs>
</svg>
