<svg width="70" height="71" viewBox="0 0 70 71" fill="none" xmlns="http://www.w3.org/2000/svg">
<g clip-path="url(#clip0_10390_81149)">
<path d="M26 4C26 2.34315 27.3431 1 29 1H38.7574C39.553 1 40.3161 1.31607 40.8787 1.87868L49.1213 10.1213C49.6839 10.6839 50 11.447 50 12.2426V32C50 33.6569 48.6569 35 47 35H29C27.3431 35 26 33.6569 26 32V4Z" fill="white"/>
<path fill-rule="evenodd" clip-rule="evenodd" d="M50 11V32C50 32.7956 49.6839 33.5587 49.1213 34.1213C48.5587 34.6839 47.7956 35 47 35H29C28.2044 35 27.4413 34.6839 26.8787 34.1213C26.3161 33.5587 26 32.7956 26 32V4C26 3.20435 26.3161 2.44129 26.8787 1.87868C27.4413 1.31607 28.2044 1 29 1H40L50 11ZM40 12C39.7348 12 39.4804 11.8946 39.2929 11.7071C39.1054 11.5196 39 11.2652 39 11V3H29C28.7348 3 28.4804 3.10536 28.2929 3.29289C28.1054 3.48043 28 3.73478 28 4V32C28 32.2652 28.1054 32.5196 28.2929 32.7071C28.4804 32.8946 28.7348 33 29 33H47C47.2652 33 47.5196 32.8946 47.7071 32.7071C47.8946 32.5196 48 32.2652 48 32V12H40ZM41 4.828L46.172 10H41V4.828Z" fill="#335EEA"/>
<path d="M24 7V34C24 34.7956 24.3161 35.5587 24.8787 36.1213C25.4413 36.6839 26.2044 37 27 37H46V39H27C25.6739 39 24.4021 38.4732 23.4645 37.5355C22.5268 36.5979 22 35.3261 22 34V7H24Z" fill="#335EEA"/>
<path d="M22.998 45.7207L20.6132 51.9785L18.2167 45.7207H16.8222L20.1269 54H21.0878L24.3808 45.7207H22.998ZM26.665 54H27.9248V45.7207H26.665V54ZM31.4922 54H36.9707V52.8105H32.752V50.4316H36.6309V49.2715H32.752V46.8809H36.9707V45.7207H31.4922V54ZM41.3995 54H42.6299L44.5459 48.1758L46.4561 54H47.6866L50.1358 45.7207H48.8291L46.9776 52.1602L45.0381 46.1895H44.0479L42.1084 52.1602L40.2627 45.7207H38.9502L41.3995 54ZM8.42125 68H10.7533C13.5189 68 15.0482 66.5059 15.0482 63.9219C15.0482 61.2324 13.5599 59.7207 10.765 59.7207H8.42125V68ZM9.68102 66.8398V60.8809H10.7474C12.8802 60.8809 13.7884 61.7891 13.7884 63.8691C13.7884 66.0137 12.5873 66.8398 10.6361 66.8398H9.68102ZM17.7367 68H23.2152V66.8105H18.9965V64.4316H22.8754V63.2715H18.9965V60.8809H23.2152V59.7207H17.7367V68ZM27.9252 68H29.185V60.8516H31.8745V59.7207H25.2299V60.8516H27.9252V68ZM32.436 68H33.813L34.4985 66.1367H37.8266L38.5005 68H39.8598L36.6372 59.7207H35.6704L32.436 68ZM34.8911 65.0527L36.1626 61.5547L37.4282 65.0527H34.8911ZM42.1558 68H43.4155V59.7207H42.1558V68ZM46.983 68H51.8638V66.8105H48.2427V59.7207H46.983V68ZM56.5094 68.0879C58.068 68.0879 59.3219 67.1445 59.3219 65.6328C59.3219 62.8906 55.232 63.4707 55.232 61.7715C55.232 61.1621 55.7477 60.7285 56.4273 60.7285C57.0543 60.7285 57.5641 61.0566 57.8863 61.666L58.9293 61.0215C58.3785 60.043 57.4879 59.6094 56.4684 59.6094C55.109 59.6094 53.9723 60.4297 53.9723 61.8359C53.9723 64.4961 58.0621 63.875 58.0621 65.7441C58.0621 66.4355 57.4996 66.9688 56.5328 66.9688C55.5777 66.9688 54.816 66.4648 54.6871 65.3926L53.4391 65.709C53.6969 67.2852 55.0621 68.0879 56.5094 68.0879Z" fill="#335EEA"/>
</g>
<defs>
<clipPath id="clip0_10390_81149">
<rect width="70" height="71" fill="white"/>
</clipPath>
</defs>
</svg>
