<svg width="70" height="63" viewBox="0 0 70 63" fill="none" xmlns="http://www.w3.org/2000/svg">
<g clip-path="url(#clip0_10390_81176)">
<g filter="url(#filter0_d_10390_81176)">
<rect x="18" width="34" height="26" rx="3" fill="white"/>
</g>
<path d="M49.5714 23.0455V8.86364C49.1667 9.30682 48.7303 9.71307 48.2623 10.0824C44.8724 12.6184 42.1782 14.6989 40.1797 16.3239C39.5346 16.8532 39.0097 17.2656 38.6049 17.5611C38.2001 17.8565 37.6531 18.1551 36.9637 18.4567C36.2744 18.7583 35.6261 18.9091 35.019 18.9091H34.981C34.3739 18.9091 33.7256 18.7583 33.0363 18.4567C32.3469 18.1551 31.7999 17.8565 31.3951 17.5611C30.9903 17.2656 30.4654 16.8532 29.8203 16.3239C27.8218 14.6989 25.1276 12.6184 21.7377 10.0824C21.2697 9.71307 20.8333 9.30682 20.4286 8.86364V23.0455C20.4286 23.2055 20.4887 23.344 20.6088 23.4609C20.729 23.5779 20.8713 23.6364 21.0357 23.6364H48.9643C49.1287 23.6364 49.271 23.5779 49.3912 23.4609C49.5113 23.344 49.5714 23.2055 49.5714 23.0455ZM49.5714 3.63778V3.18537L49.5619 2.94531L49.505 2.71449L49.4007 2.5483L49.2299 2.4098L48.9643 2.36364H21.0357C20.8713 2.36364 20.729 2.42211 20.6088 2.53906C20.4887 2.65601 20.4286 2.79451 20.4286 2.95455C20.4286 5.02273 21.3583 6.77083 23.2176 8.19886C25.6589 10.0701 28.1949 12.0213 30.8259 14.0526C30.9018 14.1141 31.1231 14.2957 31.49 14.5973C31.8568 14.8989 32.1477 15.1297 32.3627 15.2898C32.5778 15.4498 32.8592 15.6437 33.207 15.8714C33.5549 16.0992 33.8743 16.2685 34.1652 16.3793C34.4561 16.4901 34.7281 16.5455 34.981 16.5455H35.019C35.2719 16.5455 35.5439 16.4901 35.8348 16.3793C36.1257 16.2685 36.4451 16.0992 36.793 15.8714C37.1408 15.6437 37.4222 15.4498 37.6373 15.2898C37.8523 15.1297 38.1432 14.8989 38.51 14.5973C38.8769 14.2957 39.0982 14.1141 39.1741 14.0526C41.8051 12.0213 44.3411 10.0701 46.7824 8.19886C47.4654 7.66951 48.101 6.95857 48.6892 6.06605C49.2773 5.17353 49.5714 4.36411 49.5714 3.63778ZM52 2.95455V23.0455C52 23.858 51.7028 24.5535 51.1083 25.1321C50.5138 25.7107 49.7991 26 48.9643 26H21.0357C20.2009 26 19.4862 25.7107 18.8917 25.1321C18.2972 24.5535 18 23.858 18 23.0455V2.95455C18 2.14205 18.2972 1.4465 18.8917 0.867898C19.4862 0.289299 20.2009 0 21.0357 0H48.9643C49.7991 0 50.5138 0.289299 51.1083 0.867898C51.7028 1.4465 52 2.14205 52 2.95455Z" fill="#335EEA"/>
<path d="M24.498 35.7207L22.1132 41.9785L19.7167 35.7207H18.3222L21.6269 44H22.5878L25.8808 35.7207H24.498ZM28.165 44H29.4248V35.7207H28.165V44ZM32.9922 44H38.4707V42.8105H34.252V40.4316H38.1309V39.2715H34.252V36.8809H38.4707V35.7207H32.9922V44ZM42.8995 44H44.1299L46.0459 38.1758L47.9561 44H49.1866L51.6358 35.7207H50.3291L48.4776 42.1602L46.5381 36.1895H45.5479L43.6084 42.1602L41.7627 35.7207H40.4502L42.8995 44ZM6.69273 58H7.9525V54.3965H8.69078C8.8607 54.3965 9.03648 54.3906 9.19469 54.3906L11.2748 58H12.7162L10.4134 54.2617C11.3978 53.9629 12.0775 53.1836 12.0775 52.1113C12.0775 50.5879 10.8119 49.7207 9.24742 49.7207H6.69273V58ZM7.96422 53.3652V50.8516H9.25914C10.2318 50.8516 10.8295 51.3438 10.8295 52.1348C10.8295 52.8789 10.2904 53.3359 9.35875 53.3652H7.96422ZM15.0707 58H20.5492V56.8105H16.3305V54.4316H20.2094V53.2715H16.3305V50.8809H20.5492V49.7207H15.0707V58ZM30.1459 58.6328L30.9604 57.8652L29.7768 56.7344C30.3393 55.9902 30.6381 54.959 30.6381 53.8691C30.6381 51.6133 29.3959 49.6094 26.7065 49.6094C24.0229 49.6094 22.7807 51.6016 22.7807 53.8574C22.7807 56.1133 24.0229 58.1113 26.7065 58.1113C27.6088 58.1113 28.3647 57.8711 28.9623 57.4492L30.1459 58.6328ZM26.7065 56.9219C24.8373 56.9219 24.0405 55.5332 24.0405 53.8574C24.0405 52.1875 24.8373 50.7988 26.7065 50.7988C28.5873 50.7988 29.3784 52.1875 29.3784 53.8574C29.3784 54.6074 29.2202 55.2637 28.8627 55.8203L27.6733 54.6953L26.853 55.4453L28.0659 56.5762C27.7202 56.7871 27.2631 56.9219 26.7065 56.9219ZM36.4731 58.1113C38.6177 58.1113 39.5786 56.8223 39.5786 54.7539V49.7207H38.3188V54.6602C38.3188 56.0898 37.8677 56.8926 36.4731 56.8926C35.0845 56.8926 34.6391 56.0957 34.6391 54.6719V49.7207H33.3794V54.8125C33.3794 56.8281 34.3286 58.1113 36.4731 58.1113ZM42.6538 58H48.1323V56.8105H43.9136V54.4316H47.7925V53.2715H43.9136V50.8809H48.1323V49.7207H42.6538V58ZM53.2584 58.0879C54.817 58.0879 56.0709 57.1445 56.0709 55.6328C56.0709 52.8906 51.981 53.4707 51.981 51.7715C51.981 51.1621 52.4966 50.7285 53.1763 50.7285C53.8033 50.7285 54.313 51.0566 54.6353 51.666L55.6783 51.0215C55.1275 50.043 54.2369 49.6094 53.2173 49.6094C51.858 49.6094 50.7212 50.4297 50.7212 51.8359C50.7212 54.4961 54.8111 53.875 54.8111 55.7441C54.8111 56.4355 54.2486 56.9688 53.2818 56.9688C52.3267 56.9688 51.565 56.4648 51.4361 55.3926L50.188 55.709C50.4459 57.2852 51.8111 58.0879 53.2584 58.0879ZM60.3414 58H61.6012V50.8516H64.2906V49.7207H57.6461V50.8516H60.3414V58Z" fill="#335EEA"/>
</g>
<defs>
<filter id="filter0_d_10390_81176" x="-6" y="-16" width="82" height="74" filterUnits="userSpaceOnUse" color-interpolation-filters="sRGB">
<feFlood flood-opacity="0" result="BackgroundImageFix"/>
<feColorMatrix in="SourceAlpha" type="matrix" values="0 0 0 0 0 0 0 0 0 0 0 0 0 0 0 0 0 0 127 0" result="hardAlpha"/>
<feOffset dy="8"/>
<feGaussianBlur stdDeviation="12"/>
<feColorMatrix type="matrix" values="0 0 0 0 0.0846666 0 0 0 0 0.105686 0 0 0 0 0.174672 0 0 0 0.1 0"/>
<feBlend mode="normal" in2="BackgroundImageFix" result="effect1_dropShadow_10390_81176"/>
<feBlend mode="normal" in="SourceGraphic" in2="effect1_dropShadow_10390_81176" result="shape"/>
</filter>
<clipPath id="clip0_10390_81176">
<rect width="70" height="63" fill="white"/>
</clipPath>
</defs>
</svg>
