<svg width="70" height="63" viewBox="0 0 70 63" fill="none" xmlns="http://www.w3.org/2000/svg">
<g clip-path="url(#clip0_10390_81182)">
<rect x="19" y="1" width="34" height="26" rx="3" fill="white"/>
<path d="M50.5714 24.0455V9.86364C50.1667 10.3068 49.7303 10.7131 49.2623 11.0824C45.8724 13.6184 43.1782 15.6989 41.1797 17.3239C40.5346 17.8532 40.0097 18.2656 39.6049 18.5611C39.2001 18.8565 38.6531 19.1551 37.9637 19.4567C37.2744 19.7583 36.6261 19.9091 36.019 19.9091H35.981C35.3739 19.9091 34.7256 19.7583 34.0363 19.4567C33.3469 19.1551 32.7999 18.8565 32.3951 18.5611C31.9903 18.2656 31.4654 17.8532 30.8203 17.3239C28.8218 15.6989 26.1276 13.6184 22.7377 11.0824C22.2697 10.7131 21.8333 10.3068 21.4286 9.86364V24.0455C21.4286 24.2055 21.4887 24.344 21.6088 24.4609C21.729 24.5779 21.8713 24.6364 22.0357 24.6364H49.9643C50.1287 24.6364 50.271 24.5779 50.3912 24.4609C50.5113 24.344 50.5714 24.2055 50.5714 24.0455ZM50.5714 4.63778V4.18537L50.5619 3.94531L50.505 3.71449L50.4007 3.5483L50.2299 3.4098L49.9643 3.36364H22.0357C21.8713 3.36364 21.729 3.42211 21.6088 3.53906C21.4887 3.65601 21.4286 3.79451 21.4286 3.95455C21.4286 6.02273 22.3583 7.77083 24.2176 9.19886C26.6589 11.0701 29.1949 13.0213 31.8259 15.0526C31.9018 15.1141 32.1231 15.2957 32.49 15.5973C32.8568 15.8989 33.1477 16.1297 33.3627 16.2898C33.5778 16.4498 33.8592 16.6437 34.207 16.8714C34.5549 17.0992 34.8743 17.2685 35.1652 17.3793C35.4561 17.4901 35.7281 17.5455 35.981 17.5455H36.019C36.2719 17.5455 36.5439 17.4901 36.8348 17.3793C37.1257 17.2685 37.4451 17.0992 37.793 16.8714C38.1408 16.6437 38.4222 16.4498 38.6373 16.2898C38.8523 16.1297 39.1432 15.8989 39.51 15.5973C39.8769 15.2957 40.0982 15.1141 40.1741 15.0526C42.8051 13.0213 45.3411 11.0701 47.7824 9.19886C48.4654 8.66951 49.101 7.95857 49.6892 7.06605C50.2773 6.17353 50.5714 5.36411 50.5714 4.63778ZM53 3.95455V24.0455C53 24.858 52.7028 25.5535 52.1083 26.1321C51.5138 26.7107 50.7991 27 49.9643 27H22.0357C21.2009 27 20.4862 26.7107 19.8917 26.1321C19.2972 25.5535 19 24.858 19 24.0455V3.95455C19 3.14205 19.2972 2.4465 19.8917 1.8679C20.4862 1.2893 21.2009 1 22.0357 1H49.9643C50.7991 1 51.5138 1.2893 52.1083 1.8679C52.7028 2.4465 53 3.14205 53 3.95455Z" fill="#335EEA"/>
<path d="M25.498 36.7207L23.1132 42.9785L20.7167 36.7207H19.3222L22.6269 45H23.5878L26.8808 36.7207H25.498ZM29.165 45H30.4248V36.7207H29.165V45ZM33.9922 45H39.4707V43.8105H35.252V41.4316H39.1309V40.2715H35.252V37.8809H39.4707V36.7207H33.9922V45ZM43.8995 45H45.1299L47.0459 39.1758L48.9561 45H50.1866L52.6358 36.7207H51.3291L49.4776 43.1602L47.5381 37.1895H46.5479L44.6084 43.1602L42.7627 36.7207H41.4502L43.8995 45ZM7.69273 59H8.9525V55.3965H9.69078C9.8607 55.3965 10.0365 55.3906 10.1947 55.3906L12.2748 59H13.7162L11.4134 55.2617C12.3978 54.9629 13.0775 54.1836 13.0775 53.1113C13.0775 51.5879 11.8119 50.7207 10.2474 50.7207H7.69273V59ZM8.96422 54.3652V51.8516H10.2591C11.2318 51.8516 11.8295 52.3438 11.8295 53.1348C11.8295 53.8789 11.2904 54.3359 10.3587 54.3652H8.96422ZM16.0707 59H21.5492V57.8105H17.3305V55.4316H21.2094V54.2715H17.3305V51.8809H21.5492V50.7207H16.0707V59ZM31.1459 59.6328L31.9604 58.8652L30.7768 57.7344C31.3393 56.9902 31.6381 55.959 31.6381 54.8691C31.6381 52.6133 30.3959 50.6094 27.7065 50.6094C25.0229 50.6094 23.7807 52.6016 23.7807 54.8574C23.7807 57.1133 25.0229 59.1113 27.7065 59.1113C28.6088 59.1113 29.3647 58.8711 29.9623 58.4492L31.1459 59.6328ZM27.7065 57.9219C25.8373 57.9219 25.0405 56.5332 25.0405 54.8574C25.0405 53.1875 25.8373 51.7988 27.7065 51.7988C29.5873 51.7988 30.3784 53.1875 30.3784 54.8574C30.3784 55.6074 30.2202 56.2637 29.8627 56.8203L28.6733 55.6953L27.853 56.4453L29.0659 57.5762C28.7202 57.7871 28.2631 57.9219 27.7065 57.9219ZM37.4731 59.1113C39.6177 59.1113 40.5786 57.8223 40.5786 55.7539V50.7207H39.3188V55.6602C39.3188 57.0898 38.8677 57.8926 37.4731 57.8926C36.0845 57.8926 35.6391 57.0957 35.6391 55.6719V50.7207H34.3794V55.8125C34.3794 57.8281 35.3286 59.1113 37.4731 59.1113ZM43.6538 59H49.1323V57.8105H44.9136V55.4316H48.7925V54.2715H44.9136V51.8809H49.1323V50.7207H43.6538V59ZM54.2584 59.0879C55.817 59.0879 57.0709 58.1445 57.0709 56.6328C57.0709 53.8906 52.981 54.4707 52.981 52.7715C52.981 52.1621 53.4966 51.7285 54.1763 51.7285C54.8033 51.7285 55.313 52.0566 55.6353 52.666L56.6783 52.0215C56.1275 51.043 55.2369 50.6094 54.2173 50.6094C52.858 50.6094 51.7212 51.4297 51.7212 52.8359C51.7212 55.4961 55.8111 54.875 55.8111 56.7441C55.8111 57.4355 55.2486 57.9688 54.2818 57.9688C53.3267 57.9688 52.565 57.4648 52.4361 56.3926L51.188 56.709C51.4459 58.2852 52.8111 59.0879 54.2584 59.0879ZM61.3414 59H62.6012V51.8516H65.2906V50.7207H58.6461V51.8516H61.3414V59Z" fill="#335EEA"/>
</g>
<defs>
<clipPath id="clip0_10390_81182">
<rect width="70" height="63" fill="white"/>
</clipPath>
</defs>
</svg>
